Coordinates
version=1
nRows=27
nColumns=38
inDegrees=no

Units are S.I. units (second, meters, Newtons, ...)
If the header above contains a line with 'inDegrees', this indicates whether rotational values are in degrees (yes) or radians (no).

endheader
time	pelvis_tilt	pelvis_list	pelvis_rotation	pelvis_tx	pelvis_ty	pelvis_tz	hip_flexion_r	hip_adduction_r	hip_rotation_r	knee_angle_r	ankle_angle_r	subtalar_angle_r	mtp_angle_r	hip_flexion_l	hip_adduction_l	hip_rotation_l	knee_angle_l	ankle_angle_l	subtalar_angle_l	mtp_angle_l	lumbar_extension	lumbar_bending	lumbar_rotation	arm_flex_r	arm_add_r	arm_rot_r	elbow_flex_r	pro_sup_r	wrist_flex_r	wrist_dev_r	arm_flex_l	arm_add_l	arm_rot_l	elbow_flex_l	pro_sup_l	wrist_flex_l	wrist_dev_l
0.52	0.137237	0.961286	1.58693	0.895314	-0.104538	0.984288	0.937166	-0.0373624	-0.052784	0.0614836	-0.249111	0	0	0.327235	-0.0165053	-0.130974	0.261351	-0.0820602	0	0	0.596774	-0.0265841	-0.0726559	-0.332532	-0.261319	0.285463	0.309143	1.37761	0	0	-0.439675	-0.176836	-0.570958	0.725849	1.11701	0	0
0.53	0.13958	0.963318	1.58444	0.895565	-0.0901257	0.983225	0.939604	-0.0297509	-0.0534084	0.0984802	-0.246888	0	0	0.323059	-0.0221007	-0.132951	0.286526	-0.0830785	0	0	0.596564	-0.0216561	-0.0739066	-0.330173	-0.264459	0.289914	0.304301	1.37825	0	0	-0.444536	-0.176675	-0.569783	0.724405	1.11103	0	0
0.54	0.14372	0.964752	1.58187	0.895779	-0.0753968	0.982263	0.939663	-0.0221521	-0.0527951	0.127072	-0.252543	0	0	0.321632	-0.0285359	-0.132006	0.315316	-0.0853879	0	0	0.598022	-0.0169041	-0.0762112	-0.329601	-0.267641	0.292561	0.301588	1.37825	0	0	-0.449716	-0.176747	-0.568988	0.722344	1.10623	0	0
0.55	0.149226	0.964536	1.57837	0.896029	-0.0606039	0.981379	0.939202	-0.0149401	-0.0482612	0.144632	-0.271663	0	0	0.324724	-0.035562	-0.127585	0.349072	-0.0895487	0	0	0.602012	-0.0116549	-0.0781425	-0.330761	-0.270912	0.292785	0.301051	1.3772	0	0	-0.454391	-0.176971	-0.568209	0.719213	1.10286	0	0
0.56	0.155829	0.963132	1.57413	0.896305	-0.0460291	0.980707	0.939136	-0.009041	-0.0431007	0.156438	-0.299831	0	0	0.332296	-0.0429659	-0.118108	0.388536	-0.096375	0	0	0.606795	-0.00571544	-0.0795899	-0.333332	-0.274423	0.288783	0.303559	1.37338	0	0	-0.457312	-0.176972	-0.567406	0.714685	1.10043	0	0
0.57	0.164612	0.962403	1.56903	0.896607	-0.0316892	0.980534	0.938584	-0.00416906	-0.0459772	0.171522	-0.315243	0	0	0.34286	-0.05131	-0.104401	0.433069	-0.106178	0	0	0.609654	0.00106388	-0.0819413	-0.335325	-0.277654	0.281124	0.307587	1.36732	0	0	-0.457681	-0.176266	-0.567281	0.708202	1.09849	0	0
0.58	0.174257	0.961399	1.55999	0.897065	-0.017305	0.980785	0.938589	0.00261642	-0.0541051	0.193289	-0.310635	0	0	0.355841	-0.0612561	-0.0939013	0.481393	-0.121007	0	0	0.612262	0.0106626	-0.0816827	-0.337713	-0.281205	0.270898	0.312768	1.3595	0	0	-0.456932	-0.174389	-0.56736	0.700987	1.09631	0	0
0.59	0.183793	0.96012	1.54704	0.897659	-0.00306616	0.981392	0.939715	0.0115472	-0.0591434	0.222918	-0.29084	0	0	0.371445	-0.0722773	-0.0871983	0.533057	-0.142891	0	0	0.613745	0.0229979	-0.0773069	-0.341305	-0.285698	0.25679	0.322286	1.34938	0	0	-0.454626	-0.171404	-0.567159	0.693992	1.09343	0	0
0.6	0.190879	0.958045	1.53289	0.898362	0.0109292	0.982207	0.94241	0.0217425	-0.053384	0.257367	-0.267711	0	0	0.390189	-0.0826554	-0.0823343	0.58739	-0.169272	0	0	0.61466	0.0359235	-0.0692617	-0.345167	-0.290726	0.241993	0.334925	1.34007	0	0	-0.451933	-0.167252	-0.567667	0.688805	1.08941	0	0
0.61	0.197126	0.956829	1.52024	0.899066	0.0244327	0.983217	0.944823	0.0314805	-0.0427172	0.293789	-0.244436	0	0	0.411123	-0.0919124	-0.0735352	0.644082	-0.199557	0	0	0.612585	0.0474675	-0.061526	-0.347635	-0.295652	0.226681	0.34952	1.33174	0	0	-0.448113	-0.162936	-0.56834	0.685389	1.08483	0	0
0.62	0.203523	0.957482	1.50943	0.899757	0.0375687	0.984329	0.944312	0.0405959	-0.0343767	0.32668	-0.223098	0	0	0.433028	-0.100151	-0.0613288	0.702759	-0.231799	0	0	0.607027	0.0570682	-0.0555082	-0.348575	-0.300277	0.212074	0.365217	1.32544	0	0	-0.443606	-0.159165	-0.568455	0.683845	1.08075	0	0
0.63	0.211393	0.959656	1.49925	0.900345	0.0504621	0.985397	0.939204	0.0491404	-0.0333152	0.350954	-0.205014	0	0	0.455921	-0.108171	-0.0470594	0.763125	-0.264264	0	0	0.598936	0.0655617	-0.0511371	-0.348773	-0.305162	0.198995	0.382686	1.32208	0	0	-0.438619	-0.155979	-0.567874	0.683921	1.07885	0	0
0.64	0.222138	0.963098	1.48914	0.900708	0.0631677	0.986382	0.929001	0.0563901	-0.0411808	0.366166	-0.189641	0	0	0.479986	-0.116265	-0.0300101	0.824682	-0.296824	0	0	0.589174	0.0733836	-0.0489125	-0.349457	-0.310617	0.186694	0.402979	1.32135	0	0	-0.433192	-0.15355	-0.566509	0.685257	1.0806	0	0
0.65	0.235699	0.966925	1.47916	0.900884	0.0756564	0.98723	0.914745	0.0625336	-0.0536699	0.373476	-0.176038	0	0	0.505826	-0.124077	-0.0098831	0.886188	-0.33167	0	0	0.579269	0.0805328	-0.0485584	-0.350976	-0.316254	0.174837	0.425557	1.32296	0	0	-0.427111	-0.151749	-0.565341	0.687384	1.08473	0	0
0.66	0.250683	0.971119	1.47045	0.900855	0.0879876	0.988001	0.897447	0.0675989	-0.0668453	0.375365	-0.163188	0	0	0.532757	-0.130657	0.0120262	0.945659	-0.367883	0	0	0.569453	0.086773	-0.0503672	-0.352987	-0.322193	0.163219	0.449745	1.32693	0	0	-0.420804	-0.150478	-0.564208	0.689569	1.09045	0	0
0.67	0.265003	0.975209	1.46396	0.900594	0.100246	0.988812	0.878574	0.0718342	-0.0778641	0.373647	-0.150963	0	0	0.559896	-0.135195	0.0331326	1.00113	-0.394854	0	0	0.560943	0.0918728	-0.0531107	-0.356166	-0.328255	0.150257	0.47538	1.33196	0	0	-0.414471	-0.149509	-0.562923	0.690821	1.0961	0	0
0.68	0.275956	0.978394	1.46089	0.900238	0.112438	0.989754	0.860317	0.0749261	-0.0857604	0.370615	-0.140642	0	0	0.586774	-0.136912	0.0517668	1.05213	-0.401032	0	0	0.555181	0.0947839	-0.0561486	-0.358141	-0.333592	0.137297	0.498792	1.33473	0	0	-0.409525	-0.1491	-0.561219	0.691494	1.09949	0	0
0.69	0.283012	0.981006	1.46059	0.899903	0.124636	0.990916	0.843369	0.0766497	-0.0922033	0.368504	-0.131071	0	0	0.613004	-0.136139	0.0672617	1.09788	-0.390254	0	0	0.551428	0.0961515	-0.0579048	-0.360379	-0.338291	0.123158	0.522212	1.33747	0	0	-0.405072	-0.149261	-0.559203	0.69041	1.10091	0	0
0.7	0.285667	0.982692	1.46235	0.899655	0.136859	0.992252	0.828328	0.0773747	-0.0974143	0.367626	-0.12241	0	0	0.638409	-0.133347	0.0785586	1.13885	-0.363096	0	0	0.549705	0.0964461	-0.0566767	-0.363609	-0.342154	0.107427	0.545815	1.34387	0	0	-0.401077	-0.150032	-0.556182	0.687866	1.10067	0	0
0.71	0.284108	0.983302	1.46517	0.899605	0.149088	0.99376	0.814399	0.078213	-0.0999338	0.365649	-0.116757	0	0	0.663101	-0.129433	0.0844028	1.17544	-0.328555	0	0	0.550101	0.0957126	-0.0528649	-0.365519	-0.344924	0.0914632	0.566644	1.35093	0	0	-0.398643	-0.150968	-0.553172	0.684962	1.09889	0	0
0.72	0.279059	0.98389	1.46876	0.899718	0.161371	0.995459	0.800372	0.0789244	-0.100524	0.362996	-0.1131	0	0	0.686623	-0.124655	0.0858497	1.20717	-0.292347	0	0	0.551105	0.0941024	-0.0465088	-0.366886	-0.346965	0.0760424	0.586313	1.36022	0	0	-0.397236	-0.152016	-0.550491	0.681602	1.09588	0	0
0.73	0.271652	0.984939	1.47277	0.899913	0.17369	0.997335	0.785452	0.0795574	-0.0989671	0.360143	-0.110622	0	0	0.708896	-0.119765	0.0830046	1.23473	-0.258024	0	0	0.552052	0.0917185	-0.0383693	-0.367675	-0.348379	0.0616227	0.604972	1.37229	0	0	-0.396902	-0.153502	-0.547399	0.678026	1.09307	0	0
0.74	0.262318	0.986644	1.47794	0.9001	0.185981	0.999372	0.769692	0.079362	-0.0956431	0.357099	-0.108758	0	0	0.729777	-0.114485	0.077336	1.25695	-0.227656	0	0	0.552599	0.0881278	-0.0296738	-0.367131	-0.348803	0.047464	0.621831	1.38502	0	0	-0.397263	-0.155461	-0.544109	0.673932	1.09186	0	0
0.75	0.251257	0.989247	1.48484	0.900171	0.19814	1.0016	0.753167	0.0778684	-0.0919631	0.354228	-0.107442	0	0	0.74883	-0.108204	0.070645	1.27274	-0.204958	0	0	0.552279	0.0828918	-0.021778	-0.364181	-0.349089	0.0365317	0.636404	1.39523	0	0	-0.398249	-0.157286	-0.542015	0.669758	1.09276	0	0
0.76	0.239158	0.99197	1.49291	0.900111	0.210149	1.00391	0.736652	0.0754748	-0.088759	0.351137	-0.106916	0	0	0.767169	-0.101424	0.0636566	1.28279	-0.187165	0	0	0.552012	0.0766734	-0.014688	-0.359936	-0.350072	0.0292045	0.650154	1.40479	0	0	-0.400147	-0.15872	-0.540884	0.666273	1.09486	0	0
0.77	0.226706	0.994452	1.50166	0.89998	0.222023	1.00622	0.720011	0.0724768	-0.0860222	0.346599	-0.107484	0	0	0.785321	-0.0947838	0.056626	1.28745	-0.170322	0	0	0.551784	0.0699421	-0.00787744	-0.355933	-0.350837	0.0220503	0.664572	1.41529	0	0	-0.402364	-0.159965	-0.540088	0.663478	1.09801	0	0
0.78	0.214289	0.996023	1.51017	0.899812	0.233765	1.00844	0.704176	0.0692627	-0.0853657	0.341097	-0.109312	0	0	0.804212	-0.0888001	0.0493682	1.2868	-0.156077	0	0	0.552296	0.0632873	-0.000619736	-0.352747	-0.351304	0.0145455	0.679562	1.42559	0	0	-0.40474	-0.160888	-0.539685	0.66156	1.10192	0	0
